<?xml version="1.0" encoding="UTF-8" standalone="no"?>
<svg width="87px" height="62px" viewBox="0 0 87 62" version="1.1" xmlns="http://www.w3.org/2000/svg" xmlns:xlink="http://www.w3.org/1999/xlink" xmlns:sketch="http://www.bohemiancoding.com/sketch/ns">
    <!-- Generator: Sketch 3.4.1 (15681) - http://www.bohemiancoding.com/sketch -->
    <title>noun_70816_cc</title>
    <desc>Created with Sketch.</desc>
    <defs></defs>
    <g id="Page-1" stroke="none" stroke-width="1" fill="none" fill-rule="evenodd" sketch:type="MSPage">
        <g id="noun_70816_cc" sketch:type="MSLayerGroup" fill="#000000">
            <path d="M5.146,28.898 L26.219,14.826 C27.137,14.213 27.385,12.971 26.771,12.052 C26.158,11.134 24.917,10.885 23.997,11.5 L2.924,25.572 C1.126,26.772 0.053,28.78 0.053,30.942 C0.053,33.104 1.126,35.112 2.924,36.312 L23.997,50.384 C24.338,50.612 24.724,50.721 25.106,50.721 C25.752,50.721 26.386,50.409 26.771,49.832 C27.385,48.913 27.137,47.671 26.219,47.058 L5.146,32.985 C4.452,32.521 4.053,31.777 4.053,30.941 C4.053,30.106 4.452,29.362 5.146,28.898 L5.146,28.898 Z" id="Shape" sketch:type="MSShapeGroup"></path>
            <path d="M84.076,25.572 L63.002,11.5 C62.084,10.886 60.841,11.134 60.228,12.052 C59.614,12.971 59.862,14.213 60.78,14.826 L81.853,28.898 C82.547,29.362 82.946,30.106 82.946,30.941 C82.946,31.776 82.548,32.521 81.853,32.985 L60.781,47.058 C59.863,47.671 59.615,48.913 60.229,49.832 C60.614,50.409 61.248,50.721 61.894,50.721 C62.275,50.721 62.662,50.612 63.003,50.384 L84.076,36.312 C85.874,35.112 86.947,33.104 86.947,30.942 C86.947,28.78 85.874,26.772 84.076,25.572 L84.076,25.572 Z" id="Shape" sketch:type="MSShapeGroup"></path>
            <path d="M53.221,0.834 C52.169,0.499 51.044,1.079 50.708,2.131 L32.481,59.241 C32.145,60.293 32.726,61.418 33.778,61.754 C33.98,61.818 34.185,61.849 34.386,61.849 C35.233,61.849 36.019,61.307 36.291,60.456 L54.518,3.347 C54.854,2.295 54.273,1.17 53.221,0.834 L53.221,0.834 Z" id="Shape" sketch:type="MSShapeGroup"></path>
        </g>
    </g>
</svg>