<svg width="78" height="66" viewBox="0 0 78 66" xmlns="http://www.w3.org/2000/svg"><title>Group</title><g fill="none" fill-rule="evenodd"><path d="M70.8 53.3c.5-.6 1-1.2 1.4-1.8 1.9-2.7 2.9-5.8 2.9-9.1 0-8.3-6.7-15.3-15.8-17.5-1.9-.4-3.8-.7-5.8-.7-11.9 0-21.7 8.1-21.7 18.1 0 2.7.7 5.3 2 7.6 3.4 6.2 11 10.5 19.6 10.5 4 0 7.7-.9 10.9-2.5.7-.3 1.4-.7 2-1.1l1.9 1.1 6.1 3.7-2.8-6.5-.7-1.8z"/><path d="M77.5 63.8l-4.4-10.2c2.5-3.2 4-7.1 4-11.2 0-9.4-7.7-17.4-18-19.5C57.6 10.4 45.1.6 30 .6 14 .6.9 11.7.9 25.4c0 5.2 1.9 10 5.1 13.9L.5 52.2c-.2.4-.1.9.3 1.1.2.2.4.2.7.2.2 0 .4 0 .5-.1l12.2-7.3c4.6 2.6 10.1 4.1 16.1 4.1h1.6c3.6 7.2 12 12.3 21.8 12.3 4.7 0 9.2-1.2 12.9-3.3l9.7 5.8c.2.1.3.1.5.1s.5-.1.7-.2c.1-.2.2-.7 0-1.1zm-9.2-5.7L66.4 57c-.6.4-1.3.8-2 1.1-3.2 1.6-6.9 2.5-10.9 2.5-8.7 0-16.2-4.3-19.6-10.5-1.3-2.3-2-4.9-2-7.6 0-10 9.7-18.1 21.7-18.1 2 0 4 .2 5.8.7 9.1 2.1 15.8 9.1 15.8 17.5 0 3.3-1.1 6.4-2.9 9.1-.4.6-.9 1.2-1.4 1.8l.9 2 2.8 6.5-6.3-3.9z" fill="#404040"/></g></svg>