<?xml version="1.0" encoding="UTF-8" standalone="no"?>
<svg width="78px" height="66px" viewBox="0 0 78 66" version="1.1" xmlns="http://www.w3.org/2000/svg" xmlns:xlink="http://www.w3.org/1999/xlink" xmlns:sketch="http://www.bohemiancoding.com/sketch/ns">
    <!-- Generator: Sketch 3.4.1 (15681) - http://www.bohemiancoding.com/sketch -->
    <title>Group</title>
    <desc>Created with Sketch.</desc>
    <defs></defs>
    <g id="Page-1" stroke="none" stroke-width="1" fill="none" fill-rule="evenodd" sketch:type="MSPage">
        <g id="noun_86309_cc" sketch:type="MSLayerGroup" transform="translate(-7.000000, 0.000000)">
            <g id="Group" transform="translate(7.000000, 0.000000)" sketch:type="MSShapeGroup">
                <path d="M70.8,53.3 C71.3,52.7 71.8,52.1 72.2,51.5 C74.1,48.8 75.1,45.7 75.1,42.4 C75.1,34.1 68.4,27.1 59.3,24.9 C57.4,24.5 55.5,24.2 53.5,24.2 C41.6,24.2 31.8,32.3 31.8,42.3 C31.8,45 32.5,47.6 33.8,49.9 C37.2,56.1 44.8,60.4 53.4,60.4 C57.4,60.4 61.1,59.5 64.3,57.9 C65,57.6 65.7,57.2 66.3,56.8 L68.2,57.9 L74.3,61.6 L71.5,55.1 L70.8,53.3 L70.8,53.3 Z" id="Shape"></path>
                <path d="M77.5,63.8 L73.1,53.6 C75.6,50.4 77.1,46.5 77.1,42.4 C77.1,33 69.4,25 59.1,22.9 C57.6,10.4 45.1,0.6 30,0.6 C14,0.6 0.9,11.7 0.9,25.4 C0.9,30.6 2.8,35.4 6,39.3 L0.5,52.2 C0.3,52.6 0.4,53.1 0.8,53.3 C1,53.5 1.2,53.5 1.5,53.5 C1.7,53.5 1.9,53.5 2,53.4 L14.2,46.1 C18.8,48.7 24.3,50.2 30.3,50.2 L31.9,50.2 C35.5,57.4 43.9,62.5 53.7,62.5 C58.4,62.5 62.9,61.3 66.6,59.2 L76.3,65 C76.5,65.1 76.6,65.1 76.8,65.1 C77,65.1 77.3,65 77.5,64.9 C77.6,64.7 77.7,64.2 77.5,63.8 L77.5,63.8 Z M68.3,58.1 L66.4,57 C65.8,57.4 65.1,57.8 64.4,58.1 C61.2,59.7 57.5,60.6 53.5,60.6 C44.8,60.6 37.3,56.3 33.9,50.1 C32.6,47.8 31.9,45.2 31.9,42.5 C31.9,32.5 41.6,24.4 53.6,24.4 C55.6,24.4 57.6,24.6 59.4,25.1 C68.5,27.2 75.2,34.2 75.2,42.6 C75.2,45.9 74.1,49 72.3,51.7 C71.9,52.3 71.4,52.9 70.9,53.5 L71.8,55.5 L74.6,62 L68.3,58.1 L68.3,58.1 Z" id="Shape" fill="#D9D9D9"></path>
            </g>
        </g>
    </g>
</svg>