<?xml version="1.0" encoding="UTF-8" standalone="no"?>
<svg width="89px" height="40px" viewBox="0 0 89 40" version="1.1" xmlns="http://www.w3.org/2000/svg" xmlns:xlink="http://www.w3.org/1999/xlink" xmlns:sketch="http://www.bohemiancoding.com/sketch/ns">
    <!-- Generator: Sketch 3.4.1 (15681) - http://www.bohemiancoding.com/sketch -->
    <title>Shape</title>
    <desc>Created with Sketch.</desc>
    <defs></defs>
    <g id="Page-1" stroke="none" stroke-width="1" fill="none" fill-rule="evenodd" sketch:type="MSPage">
        <g id="noun_161683_cc" sketch:type="MSLayerGroup" transform="translate(-5.000000, 0.000000)" fill="#D9D9D9">
            <path d="M93.892,36.096 L93.89,4.167 C93.89,3.19 93.514,2.28 92.826,1.592 C92.138,0.903 91.222,0.524 90.248,0.526 L8.748,0.526 C6.741,0.526 5.106,2.158 5.106,4.168 L5.104,36.096 C5.109,37.067 5.484,37.983 6.172,38.669 C6.861,39.357 7.776,39.736 8.747,39.739 L90.247,39.739 C91.224,39.739 92.138,39.356 92.823,38.671 C93.512,37.982 93.892,37.068 93.892,36.096 L93.892,36.096 Z M89.054,26.448 L83.867,26.448 L83.865,22.321 L89.052,22.319 L89.054,26.448 L89.054,26.448 Z M66.402,18.088 L61.215,18.086 L61.215,13.955 L66.402,13.962 L66.402,18.088 L66.402,18.088 Z M70.294,13.96 L75.479,13.958 L75.481,18.088 L70.293,18.082 L70.294,13.96 L70.294,13.96 Z M57.329,18.086 L52.141,18.086 L52.141,13.96 L57.329,13.96 L57.329,18.086 L57.329,18.086 Z M48.25,18.086 L43.066,18.088 L43.066,13.958 L48.25,13.96 L48.25,18.086 L48.25,18.086 Z M39.175,18.082 L33.986,18.086 L33.988,13.955 L39.175,13.957 L39.175,18.082 L39.175,18.082 Z M30.1,18.09 L24.916,18.088 L24.913,13.958 L30.1,13.963 L30.1,18.09 L30.1,18.09 Z M25.521,22.321 L25.521,26.443 L20.337,26.448 L20.332,22.321 L25.521,22.321 L25.521,22.321 Z M29.411,22.321 L34.597,22.321 L34.597,26.448 L29.408,26.448 L29.411,22.321 L29.411,22.321 Z M38.491,22.321 L43.673,22.321 L43.673,26.448 L38.487,26.446 L38.491,22.321 L38.491,22.321 Z M47.563,22.321 L52.748,22.321 L52.75,26.448 L47.563,26.448 L47.563,22.321 L47.563,22.321 Z M56.643,22.321 L61.828,22.321 L61.828,26.448 L56.641,26.448 L56.643,22.321 L56.643,22.321 Z M65.714,22.319 L70.902,22.321 L70.902,26.448 L65.715,26.446 L65.714,22.319 L65.714,22.319 Z M74.794,22.321 L79.979,22.321 L79.979,26.448 L74.794,26.448 L74.794,22.321 L74.794,22.321 Z M89.106,18.086 L79.368,18.088 L79.37,13.96 L89.106,13.958 L89.106,18.086 L89.106,18.086 Z M83.898,5.408 L89.085,5.408 L89.085,9.535 L89.052,9.535 L89.054,9.563 L83.867,9.568 L83.867,5.438 L83.898,5.436 L83.898,5.408 L83.898,5.408 Z M79.977,5.436 L79.979,9.563 L74.792,9.568 L74.79,5.436 L79.977,5.436 L79.977,5.436 Z M70.898,5.438 L70.902,9.563 L65.712,9.563 L65.714,5.436 L70.898,5.438 L70.898,5.438 Z M61.827,5.438 L61.829,9.565 L56.638,9.567 L56.638,5.435 L61.827,5.438 L61.827,5.438 Z M52.744,5.436 L52.749,9.568 L47.562,9.563 L47.564,5.436 L52.744,5.436 L52.744,5.436 Z M43.675,5.436 L43.673,9.568 L38.487,9.568 L38.487,5.438 L43.675,5.436 L43.675,5.436 Z M34.597,5.436 L34.597,9.568 L29.411,9.563 L29.411,5.436 L34.597,5.436 L34.597,5.436 Z M25.521,5.44 L25.521,9.568 L20.334,9.563 L20.33,5.436 L25.521,5.44 L25.521,5.44 Z M10.834,5.436 L16.023,5.438 L16.021,9.568 L10.837,9.563 L10.834,5.436 L10.834,5.436 Z M10.837,13.958 L20.186,13.958 L20.186,18.088 L10.837,18.086 L10.837,13.958 L10.837,13.958 Z M10.837,26.446 L10.839,22.321 L16.021,22.321 L16.021,26.451 L10.837,26.446 L10.837,26.446 Z M10.834,35.021 L10.834,30.895 L16.023,30.892 L16.021,35.021 L10.834,35.021 L10.834,35.021 Z M20.335,35.022 L20.335,30.894 L25.522,30.891 L25.522,35.02 L20.335,35.022 L20.335,35.022 Z M29.375,35.024 L29.375,30.894 L61.779,30.894 L61.784,35.02 L29.375,35.024 L29.375,35.024 Z M65.716,35.024 L65.716,30.89 L70.901,30.895 L70.903,35.023 L65.716,35.024 L65.716,35.024 Z M74.792,35.021 L74.79,30.895 L79.978,30.895 L79.978,35.021 L74.792,35.021 L74.792,35.021 Z M83.867,35.021 L83.865,30.89 L89.052,30.897 L89.054,35.023 L83.867,35.021 L83.867,35.021 Z" id="Shape" sketch:type="MSShapeGroup"></path>
        </g>
    </g>
</svg>