<svg width="92" height="86" viewBox="0 0 92 86" xmlns="http://www.w3.org/2000/svg"><title>Shape</title><path d="M77.504 4.73s.57.65 1.642 1.864l.896 1.016c.363.44.833 1.074 1.292 1.678.926 1.244 2.066 2.712 2.914 4.277.462.792.948 1.626 1.46 2.5.443.912.88 1.878 1.342 2.88.228.5.46 1.013.696 1.535.204.535.387 1.09.584 1.652.372 1.13.82 2.277 1.142 3.503 1.363 4.896 2.007 10.63 1.51 16.767l-.178 1.956c-.11.777-.27 1.666-.417 2.502-.16.846-.32 1.7-.48 2.563-.21.802-.448 1.577-.678 2.374-.24.79-.46 1.593-.73 2.386l-.95 2.35c-.586 1.6-1.417 3.112-2.23 4.65l-.615 1.157-.718 1.106-1.46 2.218c-.478.75-1.09 1.413-1.635 2.125-.573.69-1.108 1.412-1.725 2.08l-1.902 1.96-.963.972-1.048.896-2.12 1.79c-.727.572-1.513 1.08-2.273 1.62-1.495 1.12-3.175 1.983-4.82 2.91-.806.49-1.71.806-2.57 1.21-.876.363-1.724.8-2.632 1.096-1.82.57-3.607 1.274-5.506 1.615-.94.202-1.875.422-2.82.6l-2.87.34-1.435.16c-.48.025-.966.023-1.448.035l-2.894.038-.36.003c-.55-.014-.2-.01-.34-.014l-.08-.007-.16-.016-.64-.056-1.284-.117-1.283-.12c-.22-.022-.415-.03-.655-.066l-.755-.13c-2.01-.36-4.057-.692-5.85-1.304-.92-.296-1.863-.505-2.754-.878l-2.675-1.09c-.902-.33-1.733-.828-2.586-1.26-.84-.468-1.717-.86-2.514-1.39-1.593-1.06-3.224-2.044-4.66-3.294-3.007-2.31-5.547-5.13-7.81-8.057-4.354-5.99-7.26-12.865-8.11-19.767-.915-6.9-.18-13.55 1.825-19.556 1.964-5.946 5.253-10.96 8.88-14.887 3.66-3.92 7.674-6.824 11.527-8.73.94-.52 1.93-.87 2.838-1.287.46-.193.905-.4 1.354-.574l1.35-.434c.884-.274 1.72-.57 2.533-.79.826-.18 1.613-.348 2.36-.508 1.48-.382 2.852-.434 4.02-.588.583-.056 1.12-.154 1.62-.156l1.36-.014C42.637.008 43.5 0 43.5 0s-.86.08-2.472.226L39.685.35c-.493.04-1.02.183-1.595.283-1.142.247-2.477.405-3.898.9-.715.214-1.47.44-2.26.68-.774.28-1.563.636-2.395.97l-1.267.524c-.42.203-.833.44-1.26.664-.843.48-1.76.888-2.618 1.46-3.534 2.12-7.1 5.19-10.202 9.11-3.074 3.93-5.695 8.766-7.014 14.25-1.34 5.375-1.506 11.516-.212 17.37 1.21 5.9 4.203 11.503 8.215 16.18 2.09 2.27 4.35 4.425 6.96 6.094 1.24.93 2.64 1.6 3.98 2.354.67.378 1.41.62 2.11.94.71.29 1.392.645 2.14.837l2.19.69c.72.245 1.49.33 2.23.506 1.52.39 2.9.45 4.29.62l.52.064c.184.017.42.01.63.014l1.29.012 1.283.01.643.006h.16l.08.002c-.09-.004.313.007-.18-.008l.28-.03 2.227-.22c.367-.04.737-.063 1.103-.11l1.087-.225 2.157-.43c.705-.197 1.397-.43 2.09-.638 1.41-.353 2.7-1.03 4.023-1.547.66-.27 1.26-.665 1.886-.984.61-.358 1.265-.62 1.826-1.05 1.15-.8 2.343-1.507 3.363-2.44.52-.445 1.07-.85 1.566-1.312l1.425-1.436.713-.705.63-.775 1.256-1.516c.405-.51.732-1.078 1.103-1.603.343-.545.757-1.036 1.042-1.606l.896-1.66.45-.817.356-.855c.474-1.134.99-2.224 1.284-3.38l.53-1.68c.138-.564.23-1.137.35-1.694l.34-1.65.135-1.47c.048-.495.12-.923.165-1.456l.02-1.964c-.028-4.202-.77-8-1.94-11.13-.278-.787-.66-1.508-.955-2.227l-.458-1.047-.553-.955c-.355-.623-.693-1.222-1.016-1.794L69.8 22.95c-.673-1.055-1.304-1.634-1.81-2.25-.272-.31-.44-.557-.733-.865l-.976-.94-1.79-1.723c-3.58-3.454-3.682-9.156-.23-12.738C67.71.85 73.41.744 76.995 4.197c.176.17.353.357.51.534z" fill-rule="evenodd"/></svg>