<svg width="92" height="86" viewBox="0 0 92 86" xmlns="http://www.w3.org/2000/svg"><title>Shape</title><path d="M77.504 4.73s.57.65 1.642 1.864l.896 1.016c.363.44.833 1.074 1.292 1.678.926 1.244 2.066 2.712 2.914 4.277.462.792.948 1.626 1.46 2.5.443.912.88 1.878 1.342 2.88.228.5.46 1.013.696 1.535.204.535.387 1.09.584 1.652.372 1.13.82 2.277 1.142 3.503 1.363 4.896 2.007 10.63 1.51 16.767l-.178 1.956c-.11.777-.27 1.666-.417 2.502-.16.846-.32 1.7-.48 2.563-.21.802-.448 1.577-.678 2.374-.24.79-.46 1.593-.73 2.386l-.945 2.35c-.586 1.6-1.417 3.112-2.232 4.65l-.614 1.157-.718 1.106-1.46 2.218c-.476.75-1.087 1.413-1.633 2.125-.573.69-1.108 1.417-1.725 2.08l-1.903 1.96-.962.977-1.048.896-2.118 1.788c-.728.574-1.514 1.08-2.274 1.62-1.496 1.12-3.176 1.985-4.82 2.91-.807.493-1.712.808-2.57 1.21-.877.365-1.725.8-2.633 1.098-1.822.57-3.608 1.274-5.507 1.615-.94.202-1.875.422-2.82.598l-2.87.34-1.435.16c-.48.026-.964.024-1.446.036l-2.893.038-.36.003c-.548-.014-.198-.01-.34-.014l-.08-.007-.16-.016-.64-.058-1.283-.117-1.283-.12c-.22-.022-.414-.03-.654-.066l-.754-.13c-2.01-.36-4.056-.694-5.85-1.306-.918-.296-1.862-.505-2.753-.878l-2.676-1.09c-.903-.33-1.734-.826-2.587-1.26-.84-.466-1.715-.857-2.512-1.387-1.594-1.06-3.225-2.044-4.66-3.294-3.008-2.31-5.548-5.13-7.81-8.057-4.36-5.993-7.266-12.867-8.117-19.77C.435 40.65 1.17 34 3.175 27.994c1.963-5.946 5.252-10.96 8.88-14.887 3.66-3.92 7.673-6.824 11.526-8.73.94-.52 1.93-.87 2.836-1.287.46-.193.905-.4 1.354-.574l1.35-.434c.883-.274 1.718-.57 2.532-.79.826-.18 1.613-.348 2.36-.508 1.48-.382 2.852-.434 4.02-.588C38.62.14 39.157.042 39.658.04l1.36-.014C42.636.008 43.5 0 43.5 0s-.86.08-2.472.226L39.685.35c-.493.04-1.02.183-1.595.283-1.142.247-2.477.405-3.898.9-.715.214-1.47.44-2.26.68-.774.28-1.563.636-2.395.97l-1.267.524c-.42.203-.833.44-1.26.664-.843.477-1.76.883-2.618 1.455-3.534 2.12-7.1 5.19-10.202 9.11-3.074 3.93-5.695 8.766-7.014 14.25-1.34 5.375-1.506 11.516-.212 17.37 1.21 5.9 4.203 11.503 8.215 16.182 2.09 2.27 4.35 4.424 6.964 6.093 1.238.928 2.642 1.6 3.98 2.353.67.378 1.412.62 2.108.94.71.29 1.394.645 2.14.837l2.19.69c.72.244 1.49.33 2.228.505 1.52.392 2.904.45 4.292.622l.52.063c.186.016.422.008.63.013l1.288.012 1.287.013.643.006h.16l.082.002c-.09-.003.313.008-.18-.007l.28-.03 2.227-.22c.367-.04.737-.063 1.103-.11l1.086-.225 2.157-.43c.704-.197 1.396-.43 2.09-.638 1.41-.352 2.698-1.03 4.022-1.546.66-.27 1.26-.666 1.886-.985.61-.357 1.267-.618 1.828-1.048 1.15-.8 2.343-1.508 3.363-2.44.52-.446 1.07-.85 1.566-1.313l1.427-1.435.712-.705.63-.774 1.256-1.517c.406-.51.733-1.077 1.104-1.602.343-.543.757-1.034 1.042-1.604l.897-1.66.45-.816.355-.855c.473-1.134.988-2.224 1.283-3.38l.53-1.68c.136-.564.23-1.137.35-1.694l.338-1.65.135-1.47c.048-.494.12-.922.165-1.455l.02-1.963c-.027-4.202-.77-8-1.94-11.13-.277-.787-.66-1.508-.954-2.227l-.457-1.047-.553-.956c-.354-.624-.692-1.223-1.015-1.795l-1.095-1.53c-.672-1.055-1.303-1.634-1.808-2.25-.273-.31-.442-.557-.734-.865l-.976-.94-1.79-1.723c-3.58-3.454-3.687-9.156-.234-12.738C67.71.85 73.412.745 76.994 4.197c.176.17.353.357.51.534z" fill-rule="evenodd"/></svg>