<svg width="92" height="86" viewBox="0 0 92 86" xmlns="http://www.w3.org/2000/svg"><title>Shape</title><path d="M77.504 4.73s.57.65 1.642 1.864l.896 1.016c.363.44.833 1.074 1.292 1.678.926 1.244 2.066 2.712 2.914 4.277.462.792.948 1.626 1.46 2.5.443.912.88 1.878 1.342 2.88.228.5.46 1.013.696 1.535.204.535.387 1.09.584 1.652.372 1.13.82 2.277 1.142 3.503 1.363 4.896 2.007 10.63 1.51 16.767l-.178 1.956c-.11.777-.27 1.666-.417 2.502-.16.846-.32 1.7-.48 2.563-.21.802-.448 1.577-.678 2.374-.24.79-.46 1.593-.73 2.386l-.95 2.35c-.588 1.6-1.42 3.112-2.23 4.65l-.617 1.157-.718 1.106-1.46 2.218c-.478.75-1.09 1.413-1.635 2.125-.572.69-1.107 1.41-1.724 2.08l-1.902 1.96-.963.97-1.046.896-2.12 1.79c-.727.572-1.513 1.08-2.273 1.62-1.494 1.12-3.174 1.983-4.82 2.91-.805.49-1.71.806-2.57 1.21-.875.363-1.723.8-2.63 1.096-1.82.57-3.608 1.274-5.507 1.615-.94.202-1.875.422-2.82.6l-2.87.34-1.435.16c-.48.025-.966.023-1.448.035l-2.895.038-.36.004c-.55-.014-.2-.01-.34-.014l-.08-.007-.16-.016-.64-.056L41 84.906l-1.282-.12c-.22-.022-.415-.03-.655-.066l-.755-.13c-2.01-.36-4.057-.693-5.85-1.305-.92-.296-1.863-.505-2.754-.878l-2.675-1.09c-.904-.33-1.735-.828-2.588-1.26-.84-.468-1.717-.86-2.514-1.39-1.594-1.06-3.225-2.044-4.66-3.294-3.008-2.31-5.548-5.13-7.81-8.057-4.355-5.99-7.26-12.865-8.11-19.767-.916-6.9-.18-13.55 1.824-19.557 1.964-5.946 5.253-10.96 8.88-14.887 3.66-3.92 7.674-6.824 11.527-8.73.94-.52 1.93-.87 2.84-1.287.46-.194.903-.4 1.352-.575l1.35-.434c.884-.273 1.72-.57 2.533-.79.826-.18 1.613-.347 2.36-.507C35.495.4 36.867.35 38.035.195c.583-.056 1.12-.154 1.62-.156l1.36-.015L43.5 0s-.86.08-2.472.226L39.685.35c-.493.04-1.02.183-1.595.283-1.142.247-2.477.405-3.898.9-.715.214-1.47.44-2.26.68-.774.28-1.563.636-2.395.97l-1.267.524c-.42.203-.833.44-1.26.664-.843.48-1.76.89-2.618 1.46-3.534 2.12-7.1 5.19-10.202 9.11-3.074 3.93-5.695 8.768-7.014 14.25-1.34 5.377-1.506 11.518-.212 17.37 1.21 5.9 4.203 11.505 8.215 16.18 2.09 2.27 4.35 4.427 6.96 6.096 1.24.93 2.64 1.6 3.98 2.354.67.377 1.41.62 2.11.94.71.29 1.39.644 2.14.836l2.19.69c.72.245 1.49.33 2.23.506 1.52.39 2.9.45 4.29.62l.52.064c.182.017.42.01.63.014l1.29.012 1.28.01.644.006h.16l.08.002c-.09-.004.313.007-.18-.008l.28-.03 2.227-.22c.368-.04.738-.063 1.104-.11l1.087-.225 2.158-.43c.704-.197 1.396-.43 2.09-.638 1.41-.355 2.7-1.03 4.022-1.55.66-.27 1.26-.664 1.886-.983.61-.358 1.265-.62 1.826-1.05 1.15-.8 2.343-1.507 3.363-2.44.52-.445 1.07-.85 1.566-1.312l1.426-1.436.713-.706.63-.775 1.256-1.517c.405-.51.732-1.078 1.103-1.603.342-.544.756-1.035 1.04-1.605l.897-1.66.45-.817.356-.855c.474-1.134.99-2.224 1.284-3.38l.53-1.68c.138-.564.23-1.137.35-1.694l.34-1.65.135-1.47c.048-.497.12-.925.165-1.458l.02-1.964c-.028-4.203-.77-8-1.94-11.13-.278-.788-.66-1.51-.955-2.228l-.458-1.047-.553-.955c-.354-.623-.692-1.222-1.015-1.794L69.8 22.95c-.673-1.055-1.304-1.634-1.81-2.25-.272-.31-.44-.557-.733-.865l-.976-.94-1.79-1.723c-3.58-3.454-3.68-9.156-.23-12.738C67.71.85 73.41.744 76.997 4.197c.176.17.353.357.51.534z" fill-rule="evenodd"/></svg>