<?xml version="1.0" encoding="UTF-8" standalone="no"?>
<svg width="90px" height="90px" viewBox="0 0 90 90" version="1.1" xmlns="http://www.w3.org/2000/svg" xmlns:xlink="http://www.w3.org/1999/xlink" xmlns:sketch="http://www.bohemiancoding.com/sketch/ns">
    <!-- Generator: Sketch 3.4.1 (15681) - http://www.bohemiancoding.com/sketch -->
    <title>Shape</title>
    <desc>Created with Sketch.</desc>
    <defs>
        <linearGradient x1="-2.48949813e-15%" y1="50%" x2="100%" y2="50%" id="linearGradient-1">
            <stop stop-color="#FFFFFF" stop-opacity="0.5" offset="0%"></stop>
            <stop stop-color="#000000" stop-opacity="0.612007473" offset="100%"></stop>
        </linearGradient>
        <path d="M78,10 C78,5 74,0 68,0 C63,0 58,5 58,10 C58,16 63,20 68,20 C74,20 78,16 78,10 L78,10 Z M10,21 L13,20 L25,41 L34,41 C33,41 33,41 33,40 C33,38 35,36 37,36 L51,36 L57,29 C59,27 61,24 65,24 L66,24 L66,24 L70,24 C75,24 79,28 79,32 L79,56 L79,58 C77,61 75,62 72,62 L81,62 L84,30 L90,30 L86,67 L86,68 L86,90 L80,90 L80,68 L61,68 L61,90 L55,90 L55,68 L55,65 L51,65 L51,90 L43,90 L43,71 L31,88 L31,88 C30,89 29,90 27,90 C25,90 22,87 22,85 C22,84 23,83 23,82 L23,82 L40,58 L40,58 C41,57 42,57 43,57 L43,54 L8,54 L8,90 L0,90 L0,47 L8,47 L43,47 L51,47 L51,54 L59,52 C59,52 62,51 62,49 L62,37 L56,44 L37,44 L37,44 L23,44 L10,21 L10,21 Z" id="path-2"></path>
    </defs>
    <g id="Page-1" stroke="none" stroke-width="1" fill="none" fill-rule="evenodd" sketch:type="MSPage">
        <g id="noun_28130_cc" sketch:type="MSLayerGroup">
            <g id="Shape">
                <use fill="none" sketch:type="MSShapeGroup" xlink:href="#path-2"></use>
                <use fill="url(#linearGradient-1)" fill-rule="evenodd" xlink:href="#path-2"></use>
            </g>
        </g>
    </g>
</svg>