<svg width="88" height="86" viewBox="0 0 88 86" xmlns="http://www.w3.org/2000/svg"><title>Group</title><g fill="#D7D7D7" fill-rule="evenodd"><path d="M40.89 50.06c.34-.6.745-.382 1.152-.28 12.39 3.105 24.783 6.216 37.172 9.328l6.266 1.57c-.224-.98-.71-1.72-.98-2.536-.193-.588-.563-.863-1.178-1.032-14.11-3.858-28.21-7.74-42.314-11.62-1.11-.308-.903-.315-1.433.614-3.006 5.298-6.006 10.6-9.008 15.9-.963 1.703-1.925 3.406-2.94 5.195 1.943.246 3.784.477 5.622.72 4.032.534 8.064 1.08 12.1 1.61 4.036.527 8.073 1.027 12.11 1.555 4.555.597 9.112 1.19 13.662 1.833 1.086.15 2.038.023 3-.528 1.06-.61 2.205-1.07 3.3-1.625.26-.133.613-.16.775-.567-14.9-2.366-29.778-4.73-44.816-7.117 2.585-4.473 5.067-8.737 7.51-13.023z"/><path d="M22.744 70.74l16.362-29.41 43.74 13.032c-.364-.856-.673-1.483-.898-2.14-.26-.747-.7-1.16-1.492-1.41-11.604-3.68-23.194-7.4-34.79-11.108-2.333-.747-4.676-1.457-6.998-2.233-.48-.16-.717-.104-.884.35-.047.13-.134.247-.2.37-6.386 11.67-12.77 23.34-19.148 35.014-.162.296-.39.57-.43.963 1.04.263 2.1.225 3.142.324 2.832.27 5.666.507 8.5.75 2.937.255 5.875.5 8.814.75 2.833.243 5.667.49 8.5.73 2.87.246 5.74.487 8.607.735 2.026.174 4.057.348 6.084.533.577.053 1.09-.06 1.61-.33 1.116-.58 2.265-1.096 3.392-1.66.183-.09.522-.08.444-.52-14.73-1.57-29.48-3.146-44.356-4.737z"/><path d="M13.963 77.19c-.048-.32.056-.422.122-.543 7.556-14.062 15.108-28.123 22.662-42.185.426-.792.432-.788 1.347-.476 13.673 4.664 27.343 9.33 41.02 13.98.307.103.61.357 1.065.205-.298-.69-.628-1.34-.848-2.02-.205-.645-.62-.93-1.23-1.147-4.71-1.677-9.41-3.39-14.112-5.086-8.98-3.242-17.962-6.48-26.946-9.72-.82-.296-.827-.297-1.243.485-.917 1.733-1.83 3.47-2.747 5.202-7.598 14.356-15.196 28.713-22.79 43.068-.192.36-.366.73-.595 1.19.472.047.845.096 1.22.118 1.542.085 3.086.163 4.63.24 6.105.3 12.21.588 18.314.9 6.176.318 12.35.655 18.522.996.716.04 1.37-.037 2.02-.396.914-.51 1.876-.935 2.815-1.4.17-.083.45-.082.35-.44-14.527-1.01-29.073-1.948-43.576-2.97z"/><path d="M6.62 81.76c9.427-18.102 18.86-36.2 28.293-54.298.463-.886.466-.887 1.376-.542C49.795 32.047 63.3 37.176 76.812 42.29c.263.098.528.377.9.174-.262-.624-.537-1.227-.763-1.847-.216-.6-.593-.944-1.204-1.186-9.956-3.93-19.902-7.89-29.85-11.842-3.575-1.42-7.152-2.835-10.717-4.284-.53-.215-.85-.23-1.034.37-.04.13-.128.248-.192.372-3.408 6.634-6.817 13.268-10.223 19.902-6.52 12.707-13.04 25.418-19.572 38.12-.303.586-.463 1.144-.357 1.803.056.346.15.493.51.497.632.006 1.264.058 1.896.074 6.85.194 13.7.376 20.548.574 6.216.18 12.434.328 18.65.59 1.476.062 2.616-.513 3.79-1.312-14.314-.528-28.63-1.06-42.947-1.59.017-.416.23-.667.373-.94z"/><path d="M33.2 20.9c.494-.976.495-.975 1.513-.553l40.03 16.603c.182.075.35.244.61.033-.223-.527-.497-1.053-.667-1.61-.206-.675-.66-.99-1.278-1.256-13.138-5.66-26.268-11.34-39.4-17.015-1.15-.497-1.15-.497-1.712.627C22.932 36.49 13.576 55.254 4.184 74c-.647 1.29-1.172 2.517-.807 3.987.098.395.015.836.015 1.344.447-.155.465-.443.566-.643 9.754-19.26 19.5-38.526 29.243-57.79z"/><path d="M73.254 32.12c-.307-.732-.54-1.204-.703-1.7-.223-.68-.664-1.05-1.323-1.354C58.364 23.13 45.513 17.163 32.66 11.203c-.318-.147-.633-.302-.954-.442-.214-.09-.404-.077-.52.17-.088.19-.2.37-.29.56C21.618 30.56 12.343 49.624 3.07 68.69c-.153.313-.316.615-.3.993.032.926.11 1.843.41 2.79L32.136 13.71l41.12 18.41zm14.15 32.81c-.227-.537-.35-1.09-1.102-1.243-2.573-.525-5.13-1.12-7.693-1.697-7.653-1.726-15.303-3.46-22.955-5.185-4.27-.962-8.546-1.897-12.812-2.882-.47-.11-.683-.032-.914.37-.83 1.462-1.7 2.9-2.588 4.405.37.213.682.25.992.31 3.132.594 6.264 1.193 9.396 1.793 5.336 1.02 10.67 2.04 16.004 3.063 5.333 1.02 10.67 2.03 16 3.075 2.515.495 2.508.527 4.762-.575.157-.076.317-.146.473-.225.784-.39.783-.39.434-1.208z"/><path d="M50.842 17.52c6.692 3.196 13.382 6.4 20.3 9.71-.216-.513-.36-.786-.447-1.077-.308-1.034-.963-1.645-1.957-2.13-9.662-4.7-19.298-9.457-28.94-14.2-3.045-1.498-6.086-3.002-9.13-4.502-.743-.363-.744-.36-1.12.42-.03.062-.063.124-.093.187-8.888 18.714-17.767 37.43-26.683 56.13-.655 1.376-.312 2.665-.072 4.026L30.663 7.895c6.79 3.24 13.486 6.428 20.18 9.624z"/><path d="M14.358 34.218c4.85-10.326 9.696-20.654 14.545-30.98.377-.804.384-.802 1.177-.408.125.062.254.12.378.184C42.55 9.124 54.64 15.238 66.732 21.348c.712.36 1.425.713 2.136 1.07-.194-.904-.368-1.677-1.247-2.127C56.375 14.53 45.145 8.735 33.91 2.947c-1.555-.802-3.114-1.597-4.66-2.418-.378-.202-.626-.202-.87.184-.338.53-.766.99-1.036 1.577-2.223 4.832-4.468 9.653-6.708 14.48L2.24 56.375c-.417.9-.426 2.66.005 3.603.102-.207.198-.39.286-.58 3.945-8.394 7.888-16.788 11.83-25.183zm7.208-24.813c-.868 1.18-1.953 2.205-2.573 3.57C13.32 25.455 7.655 37.937 1.943 50.4c-.6 1.308-.392 2.535-.26 3.975 1.725-3.1 21.188-45.782 21.243-46.582-.575.455-.95 1.056-1.36 1.612zm-6.462 8.315c-.544.44-.91 1.046-1.332 1.59-.83 1.077-1.707 2.104-2.27 3.385C8.206 30.18 4.88 37.65 1.51 45.102c-.548 1.213-.393 2.352-.07 3.582L15.31 17.87l-.208-.15zm-9.77 12.703c-1.362 3.143-2.68 6.307-4.125 9.41-.53 1.134-.565 2.19-.253 3.477.798-1.178 7.362-16.188 7.366-16.976-1.02 1.345-2.298 2.495-2.99 4.09zm-2.91 3.315c-.618.785-1.234 1.572-1.854 2.355-.11.14-.21.288-.197.47.043.623.098 1.247.15 1.87.06.005.12.01.183.018l1.958-4.604-.24-.107z"/></g></svg>